<?xml version="1.0" standalone="no"?>
<!DOCTYPE svg PUBLIC "-//W3C//DTD SVG 20010904//EN"
 "http://www.w3.org/TR/2001/REC-SVG-20010904/DTD/svg10.dtd">
<svg version="1.0" xmlns="http://www.w3.org/2000/svg"
 width="1200.000000pt" height="1200.000000pt" viewBox="0 0 1200.000000 1200.000000"
 preserveAspectRatio="xMidYMid meet">
<metadata>
Created by potrace 1.11, written by Peter Selinger 2001-2013
</metadata>
<g transform="translate(0.000000,1200.000000) scale(0.100000,-0.100000)"
fill="#000000" stroke="none">
<path d="M150 8423 c-14 -3 -15 -268 -16 -2416 0 -1512 4 -2414 10 -2419 5 -3
14 -4 20 -2 8 3 11 684 11 2418 0 1328 -2 2416 -5 2418 -3 3 -12 3 -20 1z"/>
<path d="M1022 6008 c3 -2297 4 -2421 21 -2424 16 -2 17 91 18 1839 1 1013 0
1858 -1 1877 -2 32 129 -97 1869 -1838 1029 -1030 1873 -1872 1874 -1872 1 0
4 318 5 708 7 1288 6 2136 -1 2197 -14 118 -19 145 -41 243 -20 88 -70 246
-99 312 -28 63 -115 241 -130 265 -40 64 -148 223 -164 240 -10 12 -42 49 -71
83 -29 34 -80 87 -114 119 -34 32 -69 65 -78 73 -8 9 -34 29 -55 45 -22 17
-46 36 -54 43 -18 18 -144 101 -206 137 -184 107 -448 206 -635 239 -19 3 -46
8 -60 11 -32 7 -91 14 -160 21 -62 6 -307 6 -360 0 -121 -14 -232 -34 -346
-61 -52 -12 -315 -106 -324 -115 -3 -3 -45 -25 -94 -50 -135 -68 -246 -142
-386 -255 -29 -24 -214 -211 -249 -252 -13 -15 -45 -57 -70 -91 l-46 -64 -5
493 c-5 459 -6 492 -23 495 -16 2 -17 -117 -15 -2418z"/>
<path d="M10930 7905 c0 -330 -3 -505 -10 -505 -5 0 -10 5 -10 11 0 5 -16 31
-35 57 -216 290 -464 501 -766 649 -114 56 -331 138 -397 149 -15 3 -45 10
-67 16 -22 5 -49 11 -60 13 -11 1 -36 5 -55 9 -94 16 -150 20 -330 20 -199 0
-255 -4 -380 -29 -14 -3 -34 -7 -45 -9 -11 -2 -40 -9 -65 -16 -25 -7 -54 -14
-64 -16 -72 -14 -289 -100 -406 -162 -84 -45 -259 -157 -296 -190 -11 -9 -39
-33 -64 -53 -101 -82 -224 -212 -324 -344 -25 -33 -49 -64 -53 -70 -22 -28
-124 -209 -155 -275 -51 -107 -70 -151 -73 -164 -1 -6 -4 -18 -7 -26 -52 -142
-90 -300 -104 -430 -3 -30 -7 -71 -10 -90 -8 -63 -1 -2837 8 -2845 3 -3 852
841 1886 1876 l1882 1881 0 -1896 c0 -1889 0 -1896 20 -1896 20 0 20 7 20
2420 0 2413 0 2420 -20 2420 -20 0 -20 -7 -20 -505z"/>
<path d="M11837 8403 c-2 -5 -3 -1092 -3 -2418 1 -2284 2 -2410 19 -2413 9 -2
18 2 18 10 1 7 2 1096 3 2421 1 2259 0 2407 -16 2407 -9 0 -19 -3 -21 -7z"/>
<path d="M5905 4136 c-86 -27 -157 -84 -192 -156 -24 -50 -26 -57 -26 -141 0
-64 4 -83 28 -127 148 -272 548 -186 561 121 5 105 -39 195 -127 262 -55 42
-174 62 -244 41z"/>
</g>
</svg>
