<svg id="Layer_1" data-name="Layer 1" xmlns="http://www.w3.org/2000/svg" xmlns:xlink="http://www.w3.org/1999/xlink" viewBox="0 0 74.82 32.12"><defs><style>.cls-1,.cls-5{fill:#3f3f3f;}.cls-1{stroke:#3f3f3f;}.cls-1,.cls-4,.cls-6{stroke-miterlimit:10;stroke-width:0.25px;}.cls-2{fill:url(#linear-gradient);}.cls-3{fill:url(#linear-gradient-2);}.cls-4{fill:#ffd3bf;stroke:#ffd3bf;}.cls-6{fill:#cdece2;stroke:#cdece2;}</style><linearGradient id="linear-gradient" x1="6.31" y1="16.29" x2="29.98" y2="16.29" gradientUnits="userSpaceOnUse"><stop offset="0" stop-color="#fff"/><stop offset="1" stop-color="#cdece2"/></linearGradient><linearGradient id="linear-gradient-2" x1="44.54" y1="16.29" x2="68.2" y2="16.29" gradientUnits="userSpaceOnUse"><stop offset="0" stop-color="#ffd3bf"/><stop offset="1" stop-color="#fff"/></linearGradient></defs><line class="cls-1" x1="0.9" y1="0.91" x2="0.9" y2="31.09"/><path class="cls-2" d="M29.92,31.09S30,14.74,30,14.3s0-.85-.06-1.27A12.83,12.83,0,0,0,6.31,7.48Z"/><path class="cls-3" d="M68.2,7.48A12.82,12.82,0,0,0,44.6,13a10.7,10.7,0,0,0-.06,1.27c0,.44.06,16.79.06,16.79Z"/><line class="cls-4" x1="68.27" y1="1" x2="68.27" y2="31.17"/><line class="cls-1" x1="73.92" y1="1" x2="73.92" y2="31.17"/><circle class="cls-5" cx="37.26" cy="29.46" r="1.87"/><line class="cls-6" x1="6.43" y1="0.91" x2="6.43" y2="31.09"/></svg>